#!OML:ASF E:\emotionWalksFemale\Project 1\Capture day 1\Session 1\Female1.ASF
:FULLY-SPECIFIED
:DEGREES
687
root 7.73492 15.3129 37.4151 -179.464 -7.29066 -178.103
lowerback 1.96701 -1.72842 -5.64475
upperback -4.03598 -2.74351 -0.40705
thorax -5.06084 -1.2107 2.91009
lowerneck -2.24688 -3.74529 -5.71213
upperneck 20.5663 -9.04272 11.2681
head 7.38934 -4.73728 3.88812
rclavicle -3.95581e-014 1.43125e-014
rhumerus -43.4864 17.6912 -98.2336
rradius 34.6621
rwrist 11.8966
rhand -6.67481 -51.069
rfingers 7.12502
rthumb 19.1836 999.857
lclavicle -3.95581e-014 1.43125e-014
lhumerus -45.2595 -9.1186 93.0246
lradius 34.5239
lwrist -14.641
lhand -2.21043 -35.6625
lfingers 7.12502
lthumb 23.4716 -7.07427
rfemur -17.2104 20.3976 23.8518
rtibia 21.2564
rfoot -11.3671 -28.4527
rtoes 12.8453
lfemur 13.9659 -15.5387 -27.9249
ltibia 19.9231
lfoot -11.8584 13.5413
ltoes -33.1158
688
root 7.76175 15.3197 37.3253 -179.601 -7.28745 -177.939
lowerback 1.85334 -1.73954 -5.68742
upperback -3.96359 -2.74675 -0.411451
thorax -4.91783 -1.21538 2.92297
lowerneck -2.10029 -3.73196 -5.6444
upperneck 20.3965 -9.02734 11.3533
head 7.30685 -4.72701 3.90996
rclavicle 3.47873e-014 -7.95139e-015
rhumerus -43.2938 17.4269 -98.0795
rradius 34.518
rwrist 12.2417
rhand -6.5546 -50.5322
rfingers 7.12502
rthumb 19.2991 1000.41
lclavicle 3.47873e-014 -7.95139e-015
lhumerus -45.1972 -9.15847 92.7932
lradius 34.7526
lwrist -14.6658
lhand -0.877096 -35.8531
lfingers 7.12502
lthumb 24.75 -7.43436
rfemur -16.6188 20.0542 24.4251
rtibia 21.1106
rfoot -10.955 -28.2214
rtoes 12.9549
lfemur 14.2522 -15.5781 -27.7056
ltibia 20.2315
lfoot -11.5521 13.3581
ltoes -33.2783
689
root 7.78658 15.3225 37.2343 -179.713 -7.31803 -177.903
lowerback 1.80598 -1.78143 -5.8598
upperback -3.94578 -2.80493 -0.385321
thorax -4.85909 -1.23922 3.04674
lowerneck -2.21359 -3.71263 -5.68784
upperneck 20.5164 -9.02688 11.3919
head 7.36975 -4.72512 3.92699
rclavicle 1.39149e-015 -1.90833e-014
rhumerus -43.2671 17.6853 -98.1504
rradius 34.4391
rwrist 12.0269
rhand -6.39679 -50.8642
rfingers 7.12502
rthumb 19.4509 1000.09
lclavicle 1.39149e-015 -1.90833e-014
lhumerus -45.2548 -8.87178 92.4787
lradius 34.8407
lwrist -15.6059
lhand -0.390029 -36.459
lfingers 7.12502
lthumb 25.2167 -8.10514
rfemur -16.0469 19.8929 24.8312
rtibia 20.961
rfoot -10.3806 -28.336
rtoes 13.9688
lfemur 14.5139 -15.6437 -27.6307
ltibia 20.5779
lfoot -11.279 13.2121
ltoes -34.2006
690
root 7.81104 15.3268 37.1425 -179.742 -7.2993 -177.931
lowerback 1.85278 -1.82552 -6.04931
upperback -4.06635 -2.88885 -0.37022
thorax -4.99753 -1.26992 3.17764
lowerneck -2.26549 -3.64502 -5.7128
upperneck 20.7169 -8.96451 11.3379
head 7.43706 -4.70489 3.91718
rclavicle -5.26779e-015 5.56597e-015
rhumerus -43.5028 17.9184 -98.268
rradius 34.4738
rwrist 11.8853
rhand -6.16662 -51.0329
rfingers 7.12502
rthumb 19.6722 999.942
lclavicle -5.26779e-015 5.56597e-015
lhumerus -45.6441 -8.55791 92.3554
lradius 34.7807
lwrist -16.2353
lhand -1.61054 -36.7698
lfingers 7.12502
lthumb 24.0469 -8.25637
rfemur -15.6072 19.8352 25.1208
rtibia 20.8288
rfoot -9.92229 -28.0921
rtoes 15.1718
lfemur 14.6178 -15.3892 -27.4674
ltibia 20.9277
lfoot -10.7317 12.8402
ltoes -34.0735
691
root 7.83555 15.3362 37.0481 -179.72 -7.16241 -177.912
lowerback 1.76818 -1.77037 -6.09495
upperback -4.13932 -2.82586 -0.434075
thorax -5.03429 -1.23934 3.13204
lowerneck -2.19182 -3.64939 -5.65873
upperneck 20.65 -8.97889 11.3762
head 7.40277 -4.71043 3.92117
rclavicle 9.93923e-015 4.05521e-014
rhumerus -43.6276 17.8082 -98.3119
rradius 34.517
rwrist 11.9046
rhand -5.8062 -51.2632
rfingers 7.12502
rthumb 20.0186 999.748
lclavicle 9.93923e-015 4.05521e-014
lhumerus -46.0507 -8.82035 92.3691
lradius 34.284
lwrist -17.4193
lhand -5.5299 -38.3215
lfingers 7.12502
lthumb 20.2842 -9.36069
rfemur -15.252 19.7893 25.4436
rtibia 20.7154
rfoot -9.22075 -27.6868
rtoes 16.3733
lfemur 14.6165 -14.9888 -27.209
ltibia 21.3286
lfoot -10.2029 12.4513
ltoes -32.9492
692
root 7.86185 15.3419 36.9562 -179.712 -7.03323 -177.845
lowerback 1.60746 -1.72342 -6.15362
upperback -4.13415 -2.75782 -0.460056
thorax -4.94297 -1.20843 3.12765
lowerneck -2.19719 -3.67911 -5.67347
upperneck 20.5593 -9.02304 11.4827
head 7.38369 -4.72422 3.95496
rclavicle -1.2921e-015 1.27222e-014
rhumerus -43.5526 17.6577 -98.2713
rradius 34.4485
rwrist 12.018
rhand -5.31219 -51.7838
rfingers 7.12502
rthumb 20.4934 999.278
lclavicle -1.2921e-015 1.27222e-014
lhumerus -46.2444 -9.63929 92.6764
lradius 34.9776
lwrist -15.2846
lhand -3.37964 -36.8971
lfingers 7.12502
lthumb 22.3496 -8.16983
rfemur -14.8554 19.6345 25.8545
rtibia 20.5604
rfoot -8.41637 -27.3991
rtoes 16.1459
lfemur 14.5211 -14.6119 -26.8765
ltibia 21.8229
lfoot -9.69404 12.0442
ltoes -32.0009
693
root 7.89251 15.3492 36.8643 -179.836 -6.99686 -177.797
lowerback 1.51512 -1.76926 -6.33811
upperback -4.07898 -2.81407 -0.433349
thorax -4.81851 -1.23313 3.25563
lowerneck -2.18383 -3.63182 -5.76972
upperneck 20.514 -8.96532 11.5985
head 7.36925 -4.69717 4.01517
rclavicle 3.67752e-015 3.26007e-014
rhumerus -43.5234 17.6863 -98.2684
rradius 34.4213
rwrist 12.1161
rhand -4.94298 -52.327
rfingers 7.12502
rthumb 20.8482 998.773
lclavicle 3.67752e-015 3.26007e-014
lhumerus -46.3087 -9.45751 92.4562
lradius 34.2401
lwrist -17.0918
lhand -6.99438 -38.2489
lfingers 7.12502
lthumb 18.8762 -9.14477
rfemur -14.2784 19.3699 26.3172
rtibia 20.415
rfoot -8.34298 -27.1589
rtoes 15.3446
lfemur 14.6197 -14.0619 -26.4858
ltibia 22.3996
lfoot -9.16041 11.2657
ltoes -31.3356
694
root 7.92018 15.3567 36.7675 -179.611 -6.93052 -177.748
lowerback 1.08125 -1.77901 -6.38513
upperback -4.13649 -2.81164 -0.466289
thorax -4.63239 -1.24153 3.23112
lowerneck -2.14873 -3.62228 -5.69276
upperneck 20.4312 -8.95315 11.6357
head 7.33326 -4.68552 4.01606
rclavicle -1.58034e-014 -2.46493e-014
rhumerus -43.4908 17.6577 -98.3083
rradius 34.3558
rwrist 12.024
rhand -4.93426 -52.4894
rfingers 7.12502
rthumb 20.8566 998.612
lclavicle -1.58034e-014 -2.46493e-014
lhumerus -46.445 -9.59708 92.3714
lradius 34.1146
lwrist -17.4172
lhand -7.95542 -38.3127
lfingers 7.12502
lthumb 17.9517 -9.12116
rfemur -14.1353 19.3317 26.5988
rtibia 20.3526
rfoot -8.30873 -27.1935
rtoes 15.6495
lfemur 14.243 -13.5209 -26.0076
ltibia 22.9749
lfoot -8.23923 10.5878
ltoes -31.5214
695
root 7.94962 15.3539 36.6709 -179.921 -7.1091 -177.806
lowerback 1.29388 -1.7981 -6.64041
upperback -4.09181 -2.86256 -0.540202
thorax -4.69577 -1.2563 3.30643
lowerneck -2.09207 -3.65858 -5.53898
upperneck 20.3721 -8.98934 11.5498
head 7.29791 -4.70005 3.95947
rclavicle 2.88238e-015 1.82882e-014
rhumerus -43.4464 17.5068 -98.3339
rradius 34.1393
rwrist 12.1265
rhand -4.90306 -52.6879
rfingers 7.12502
rthumb 20.8865 998.417
lclavicle 2.88238e-015 1.82882e-014
lhumerus -46.6907 -9.7435 92.3177
lradius 34.5668
lwrist -16.247
lhand -6.32734 -37.2523
lfingers 7.12502
lthumb 19.5177 -8.21193
rfemur -13.3474 19.4904 26.9441
rtibia 20.3089
rfoot -8.1909 -27.7195
rtoes 16.3859
lfemur 14.3765 -12.9584 -25.6518
ltibia 23.6146
lfoot -7.26367 9.76674
ltoes -30.6101
696
root 7.97722 15.3573 36.5745 -179.942 -7.05321 -177.974
lowerback 1.30046 -1.81139 -6.92933
upperback -4.17405 -2.91117 -0.619688
thorax -4.77543 -1.27117 3.38944
lowerneck -2.31308 -3.58773 -5.53056
upperneck 20.686 -8.9454 11.5246
head 7.43467 -4.67671 3.94746
rclavicle -3.57812e-015 1.19271e-014
rhumerus -43.6272 17.5386 -98.4565
rradius 34.1124
rwrist 12.4104
rhand -4.6892 -52.9253
rfingers 7.12502
rthumb 21.092 998.202
lclavicle -3.57812e-015 1.19271e-014
lhumerus -46.8174 -9.4668 92.0202
lradius 35.3807
lwrist -13.584
lhand -1.76451 -35.2964
lfingers 7.12502
lthumb 23.8992 -6.76348
rfemur -12.9256 19.5345 27.091
rtibia 20.3078
rfoot -8.57492 -27.8045
rtoes 18.3003
lfemur 14.2018 -12.2461 -25.3702
ltibia 24.3196
lfoot -6.38994 9.09313
ltoes -29.3963
697
root 8.00424 15.3597 36.4779 -179.938 -6.99218 -177.94
lowerback 1.22445 -1.8509 -7.02611
upperback -4.26132 -2.97677 -0.643643
thorax -4.81539 -1.30132 3.42037
lowerneck -2.47853 -3.47998 -5.48498
upperneck 20.9404 -8.85812 11.545
head 7.53858 -4.63097 3.94966
rclavicle -3.57812e-015 -1.90833e-014
rhumerus -43.7814 17.6636 -98.6326
rradius 34.0497
rwrist 12.5286
rhand -4.73189 -52.4067
rfingers 7.12502
rthumb 21.051 998.716
lclavicle -3.57812e-015 -1.90833e-014
lhumerus -47.0173 -9.33978 91.7758
lradius 34.6075
lwrist -15.6105
lhand -6.30678 -36.8857
lfingers 7.12502
lthumb 19.5374 -7.8473
rfemur -12.5515 19.4112 27.4586
rtibia 20.3477
rfoot -8.94652 -27.4764
rtoes 20.5023
lfemur 13.9537 -11.6634 -24.9491
ltibia 25.1456
lfoot -5.63252 8.61818
ltoes -28.7175
698
root 8.03032 15.3603 36.3846 -179.936 -7.11498 -177.842
lowerback 1.14557 -1.90061 -7.02574
upperback -4.30841 -3.04757 -0.686927
thorax -4.81507 -1.33935 3.37597
lowerneck -2.20178 -3.47681 -5.38092
upperneck 20.6259 -8.81099 11.5536
head 7.37695 -4.61044 3.94549
rclavicle 4.45278e-014 3.81667e-014
rhumerus -43.6929 17.5856 -98.6973
rradius 33.8216
rwrist 12.5026
rhand -4.5462 -52.2342
rfingers 7.12502
rthumb 21.2294 998.908
lclavicle 4.45278e-014 3.81667e-014
lhumerus -47.0676 -9.43253 91.5526
lradius 34.2628
lwrist -16.4041
lhand -7.50181 -37.3529
lfingers 7.12502
lthumb 18.3881 -8.20203
rfemur -12.1599 19.0549 27.8754
rtibia 20.349
rfoot -9.04179 -26.7648
rtoes 21.7723
lfemur 13.5709 -11.0512 -24.3436
ltibia 26.1231
lfoot -4.88719 7.82982
ltoes -26.074
699
root 8.05674 15.3606 36.2903 -179.914 -7.24449 -177.828
lowerback 0.991702 -1.96242 -7.08294
upperback -4.29653 -3.12332 -0.721352
thorax -4.70632 -1.38144 3.36772
lowerneck -2.11605 -3.50403 -5.43203
upperneck 20.4057 -8.80585 11.6167
head 7.29364 -4.60585 3.97784
rclavicle 4.77083e-015 -1.43125e-014
rhumerus -43.5881 17.5667 -98.6945
rradius 33.7606
rwrist 12.3388
rhand -4.29258 -53.204
rfingers 7.12502
rthumb 21.473 997.966
lclavicle 4.77083e-015 -1.43125e-014
lhumerus -47.0846 -9.78495 91.5827
lradius 34.2773
lwrist -15.9114
lhand -6.92134 -36.6559
lfingers 7.12502
lthumb 18.9465 -7.55867
rfemur -11.7346 18.8259 28.1888
rtibia 20.2549
rfoot -9.32728 -27.1153
rtoes 20.9177
lfemur 13.0053 -10.3675 -23.7543
ltibia 27.3273
lfoot -4.2304 6.96798
ltoes -22.8319
700
root 8.08458 15.36 36.1942 -180.032 -7.30796 -177.742
lowerback 0.952905 -1.99105 -7.10198
upperback -4.25275 -3.15429 -0.725755
thorax -4.63392 -1.3989 3.37182
lowerneck -2.34632 -3.49918 -5.49639
upperneck 20.5751 -8.83128 11.6892
head 7.39871 -4.60847 4.00491
rclavicle 3.75703e-014 3.89618e-014
rhumerus -43.5637 17.6361 -98.7208
rradius 33.7769
rwrist 12.1671
rhand -4.37858 -53.9507
rfingers 7.12502
rthumb 21.3904 997.21
lclavicle 3.75703e-014 3.89618e-014
lhumerus -47.0532 -9.37002 91.1582
lradius 34.2327
lwrist -16.1927
lhand -6.68487 -36.2583
lfingers 7.12502
lthumb 19.1739 -7.18344
rfemur -11.0986 18.5797 28.6336
rtibia 19.9992
rfoot -9.21226 -27.0294
rtoes 19.6081
lfemur 12.4352 -9.4913 -23.0579
ltibia 28.7652
lfoot -3.40742 6.10262
ltoes -23.9007
